<?xml version="1.0" encoding="UTF-8" standalone="no"?>
<!-- Generator: Adobe Illustrator 19.2.1, SVG Export Plug-In . SVG Version: 6.00 Build 0)  -->

<svg
   xmlns:dc="http://purl.org/dc/elements/1.1/"
   xmlns:cc="http://creativecommons.org/ns#"
   xmlns:rdf="http://www.w3.org/1999/02/22-rdf-syntax-ns#"
   xmlns:svg="http://www.w3.org/2000/svg"
   xmlns="http://www.w3.org/2000/svg"
   xmlns:sodipodi="http://sodipodi.sourceforge.net/DTD/sodipodi-0.dtd"
   xmlns:inkscape="http://www.inkscape.org/namespaces/inkscape"
   version="1.1"
   id="layer"
   x="0px"
   y="0px"
   viewBox="0 0 1000 1000"
   xml:space="preserve"
   sodipodi:docname="Logo Hotel Henry VIII.svg"
   width="1000"
   height="1000"
   inkscape:version="0.92.4 (5da689c313, 2019-01-14)"
   inkscape:export-filename="C:\Users\Jeffrey.000\Desktop\Sitio Web Henry VIII\Logo\logoHotel.png"
   inkscape:export-xdpi="96"
   inkscape:export-ydpi="96"><metadata
   id="metadata49"><rdf:RDF><cc:Work
       rdf:about=""><dc:format>image/svg+xml</dc:format><dc:type
         rdf:resource="http://purl.org/dc/dcmitype/StillImage" /><dc:title /></cc:Work></rdf:RDF></metadata><defs
   id="defs47"><filter
     inkscape:label="Metallized Paint"
     inkscape:menu="Materials"
     inkscape:menu-tooltip="Metallized effect with a soft lighting, slightly translucent at the edges"
     style="color-interpolation-filters:sRGB;"
     id="filter1293"><feGaussianBlur
       stdDeviation="1"
       result="result1"
       id="feGaussianBlur1267" /><feComposite
       in="result1"
       in2="result1"
       result="result4"
       operator="in"
       id="feComposite1269" /><feBlend
       in="result1"
       mode="screen"
       result="result5"
       in2="result4"
       id="feBlend1271" /><feGaussianBlur
       stdDeviation="8"
       result="result6"
       in="result5"
       id="feGaussianBlur1273" /><feComposite
       operator="atop"
       in="result6"
       in2="result5"
       result="result8"
       id="feComposite1275" /><feComposite
       operator="in"
       result="fbSourceGraphic"
       in="result6"
       in2="result8"
       id="feComposite1277" /><feGaussianBlur
       result="result0"
       in="fbSourceGraphic"
       stdDeviation="2.5"
       id="feGaussianBlur1279" /><feSpecularLighting
       specularExponent="45"
       specularConstant="1.5"
       surfaceScale="1"
       lighting-color="rgb(255,255,255)"
       result="result1"
       in="result0"
       id="feSpecularLighting1283"><fePointLight
         z="21000"
         y="-9000"
         x="-6000"
         id="fePointLight1281" /></feSpecularLighting><feComposite
       operator="in"
       result="result2"
       in="result1"
       in2="fbSourceGraphic"
       id="feComposite1285" /><feComposite
       k3="1"
       k2="1"
       operator="arithmetic"
       result="result4"
       in="fbSourceGraphic"
       in2="result2"
       id="feComposite1287" /><feComposite
       operator="in"
       in="result9"
       in2="result4"
       result="result91"
       id="feComposite1289" /><feBlend
       mode="multiply"
       in2="result91"
       id="feBlend1291" /></filter></defs><sodipodi:namedview
   pagecolor="#ffffff"
   bordercolor="#666666"
   borderopacity="1"
   objecttolerance="10"
   gridtolerance="10"
   guidetolerance="10"
   inkscape:pageopacity="0"
   inkscape:pageshadow="2"
   inkscape:window-width="1280"
   inkscape:window-height="971"
   id="namedview45"
   showgrid="false"
   inkscape:zoom="1.0237865"
   inkscape:cx="454.12894"
   inkscape:cy="634.21817"
   inkscape:window-x="-8"
   inkscape:window-y="-8"
   inkscape:window-maximized="1"
   inkscape:current-layer="layer"
   showguides="true"
   inkscape:guide-bbox="true"><sodipodi:guide
     position="420.98621,241.26124"
     orientation="0,1"
     id="guide928"
     inkscape:locked="false" /><sodipodi:guide
     position="248.29873,648.20128"
     orientation="1,0"
     id="guide850"
     inkscape:locked="false" /></sodipodi:namedview>
<style
   type="text/css"
   id="style2">
	.st0{fill:#5E584F;}
</style>


<path
   style="fill:#165016;stroke:#060000;stroke-width:2.27035022;stroke-opacity:0;filter:url(#filter1293)"
   d="m 516.7954,501.57195 c -1.88648,-1.48392 -3.10888,-4.59426 -3.64577,-9.27649 -0.27778,-2.4225 -0.91773,-4.44328 -1.83528,-5.79538 -0.77484,-1.1418 -1.56438,-2.69589 -1.75453,-3.4535 -0.61839,-2.46383 0.0998,-8.12551 1.25265,-9.87477 0.9382,-1.42367 1.1296,-2.99884 1.26781,-10.43387 0.0895,-4.81639 0.39244,-10.3028 0.67312,-12.19203 l 0.51034,-3.43495 -1.96661,2.36754 c -2.19323,2.64035 -6.93069,5.80691 -14.02168,9.37218 -3.39643,1.7077 -5.07822,2.94389 -5.97158,4.38937 -2.58741,4.18652 -7.97224,7.96305 -11.3542,7.96305 -0.77909,0 -2.25598,0.78417 -3.28198,1.7426 -1.75868,1.64289 -1.85411,1.94367 -1.6672,5.2553 0.18051,3.19844 0.093,3.51264 -0.97847,3.51171 -0.64719,-5.9e-4 -2.07181,-0.48112 -3.16582,-1.06784 -5.20279,-2.7903 -5.55977,-11.48747 -0.68707,-16.73932 0.89373,-0.96327 1.93311,-2.83886 2.30971,-4.16798 0.40331,-1.42336 1.65623,-3.38805 3.04847,-4.7803 2.47948,-2.47947 4.95272,-3.49174 11.55935,-4.73109 5.33479,-1.00076 9.56397,-3.05653 15.45782,-7.51392 l 5.1705,-3.91033 -3.99821,-0.45181 c -7.08283,-0.80039 -13.58041,-2.29169 -17.00452,-3.90281 -2.78634,-1.31103 -3.67908,-1.48263 -5.38356,-1.03483 -1.12382,0.29525 -4.08492,0.44426 -6.58021,0.33112 -4.38947,-0.19902 -4.60191,-0.27668 -6.53804,-2.39008 -1.64432,-1.79488 -2.39683,-2.18278 -4.22019,-2.17544 -3.33677,0.0134 -3.89476,0.57437 -3.17271,3.18942 0.33292,1.20574 0.46502,2.89375 0.29354,3.75112 -0.17176,0.85881 0.23418,3.1795 0.90394,5.16765 2.09676,6.22413 1.40078,11.19604 -2.14755,15.34145 -1.6734,1.95499 -4.57599,4.06691 -5.5895,4.06691 -0.13952,0 -0.12567,-1.64196 0.0308,-3.64879 0.25722,-3.2994 0.0954,-4.01213 -1.6903,-7.44351 -1.35966,-2.61276 -2.5148,-4.04243 -3.70856,-4.58997 -7.5918,-3.48209 -9.64813,-8.40794 -7.914,-18.95768 l 0.46396,-2.82257 -3.56374,-2.96685 c -1.96003,-1.63176 -5.53406,-3.90822 -7.94226,-5.0588 -4.37853,-2.09195 -4.37855,-2.09196 -12.55181,-2.09196 -10.98929,0 -15.85382,1.16374 -19.55747,4.67871 -4.47245,4.2446 -8.33947,5.40196 -11.67612,3.49456 -2.04405,-1.16848 -4.63897,-1.06851 -6.82245,0.26285 -2.04524,1.24707 -2.95752,2.64806 -3.98826,6.12483 l -0.68218,2.30104 -1.91241,-3.88468 c -1.69395,-3.44091 -1.88517,-4.31267 -1.67387,-7.63116 0.28136,-4.41863 2.01772,-7.18553 5.55938,-8.85893 1.22223,-0.57749 3.26291,-2.22842 4.53485,-3.66876 4.2609,-4.82498 7.92674,-5.62122 16.66106,-3.61885 7.22261,1.6558 16.59827,1.37043 17.7797,-0.54117 0.16926,-0.27386 -1.93123,-2.12465 -4.66775,-4.11287 -6.55213,-4.76044 -11.58914,-9.47293 -12.75793,-11.93597 -0.76852,-1.61953 -1.37314,-2.06268 -3.24599,-2.37909 -3.33709,-0.5638 -7.1661,-3.3518 -9.74475,-7.09541 -2.02033,-2.93305 -2.26292,-3.67701 -2.3736,-7.279 -0.14739,-4.79698 -0.79382,-6.18819 -3.3768,-7.26743 -1.67542,-0.70004 -2.33979,-0.69403 -4.7694,0.0431 -1.55254,0.47104 -2.89524,0.85928 -2.98376,0.86276 -0.47696,0.0187 1.90237,-3.77697 3.52873,-5.62933 3.93138,-4.47764 9.0456,-5.28731 12.84528,-2.03361 1.03669,0.88772 3.19845,2.09603 4.80391,2.68514 5.75269,2.11088 7.50117,4.25381 9.33506,11.44099 1.35278,5.30165 4.60623,11.63825 7.55635,14.71717 2.1636,2.25808 10.77698,8.60004 11.68018,8.60004 0.17036,0 -0.22462,-1.35569 -0.87773,-3.01264 -0.6531,-1.65694 -1.69336,-6.5828 -2.31167,-10.94634 -0.61832,-4.36355 -1.40076,-8.89979 -1.73877,-10.08055 -0.97973,-3.42251 -4.1516,-7.74922 -5.83735,-7.96264 -6.15788,-0.77963 -9.99295,-3.70016 -11.45273,-8.72162 -0.51419,-1.76878 -0.7932,-4.08917 -0.62001,-5.15641 0.23018,-1.41844 -0.0358,-2.4578 -0.98876,-3.86351 -1.25337,-1.84888 -1.45226,-1.92305 -5.15602,-1.92305 -4.40329,0 -4.43778,-0.22656 -0.66946,-4.39763 3.62429,-4.01165 7.02408,-4.28847 13.04893,-1.06249 1.76601,0.9456 4.38741,1.98441 5.82534,2.30847 3.77036,0.8497 6.13266,2.92488 8.08607,7.10328 2.09118,4.47311 2.49298,6.12328 5.03023,20.659 2.22075,12.72248 4.20412,20.2812 6.5218,24.85493 l 1.5131,2.98595 1.01404,-2.87355 c 1.27166,-3.60359 2.01805,-5.04868 7.80315,-15.10795 4.97018,-8.64225 7.37537,-14.45561 7.39554,-17.87509 0.0119,-2.01145 -0.19001,-2.21184 -5.58743,-5.54615 -14.10418,-8.71301 -29.33619,-22.46086 -37.1445,-33.52528 -4.93517,-6.99315 -9.79739,-16.28649 -12.07007,-23.06996 -4.69555,-14.01527 -4.81386,-30.54617 -0.33001,-46.11095 5.45231,-18.92659 23.52083,-41.62854 44.31044,-55.67325 11.20873,-7.57222 18.82346,-11.47136 39.14844,-20.0461 27.47811,-11.5925 36.31826,-17.66711 41.751,-28.6897 2.40041,-4.87024 4.42378,-12.53135 3.54241,-13.41272 -0.27002,-0.27001 -1.54769,-0.63267 -2.83928,-0.80591 -4.22133,-0.5662 -7.65541,1.59238 -15.89099,9.98866 -9.56638,9.75305 -10.56438,10.32701 -18.88207,10.85939 -4.99602,0.31976 -7.37515,0.77065 -10.21217,1.93537 -5.45582,2.23987 -12.38354,7.09557 -19.8454,13.90982 -9.76004,8.91298 -13.49478,12.02114 -15.70441,13.06968 -1.8266,0.86678 -2.09434,0.86479 -3.45321,-0.0256 -0.8102,-0.53087 -1.87367,-1.92393 -2.36326,-3.0957 -1.94059,-4.64447 1.70955,-12.07162 10.67477,-21.72055 4.34235,-4.67352 11.22932,-14.30067 10.6469,-14.88309 -0.72078,-0.72078 -12.58379,1.73971 -18.55657,3.8488 -11.93296,4.21371 -15.69843,5.20208 -19.81885,5.20208 -7.44589,0 -15.68303,-3.18523 -26.40586,-10.21092 l -5.72545,-3.75137 0.33294,5.66758 0.33295,5.66759 -5.36782,-8.75708 c -2.9523,-4.8164 -6.50499,-10.59433 -7.89487,-12.83985 -1.38988,-2.24553 -2.46912,-4.14071 -2.39831,-4.21153 0.0708,-0.0708 8.19241,1.76644 18.048,4.08278 l 17.91927,4.21152 -4.22742,0.36155 c -2.32508,0.19885 -6.41031,0.39588 -9.07828,0.43785 -2.93559,0.0462 -4.71393,0.29783 -4.50409,0.63738 0.67789,1.09683 11.18039,7.28486 15.77681,9.29562 3.82773,1.67449 5.57167,2.08753 9.66522,2.28916 6.02556,0.29679 8.54109,-0.35152 23.90358,-6.16056 5.94021,-2.24619 12.58887,-4.66959 14.77478,-5.38535 l 3.97439,-1.30137 -1.93107,-1.46403 c -3.23929,-2.45583 -6.40528,-3.64615 -9.73422,-3.65977 -2.6509,-0.0109 -3.56155,-0.32762 -5.92098,-2.0596 -9.56861,-7.024 -16.49772,-4.21815 -17.34803,7.02488 -0.18147,2.39953 -0.50559,4.36278 -0.72027,4.36278 -0.83572,0 -3.51283,-3.32342 -4.41305,-5.47844 -0.52097,-1.24713 -1.10239,-4.11853 -1.29206,-6.38088 -0.22928,-2.73494 -0.80026,-4.90965 -1.70385,-6.48957 -1.68431,-2.94497 -1.74588,-6.00854 -0.22006,-10.94857 2.63533,-8.532197 10.00394,-11.014297 23.0749,-7.772727 15.30576,3.795797 25.41963,2.29406 33.371,-4.95504 6.32166,-5.76331 12.77621,-5.34046 19.34979,1.26767 l 2.94602,2.9615 4.56779,-1.20336 c 10.82036,-2.85056 21.13158,-4.24225 41.93132,-5.6594 26.37244,-1.79684 35.59665,-3.64138 40.48397,-8.09548 3.51812,-3.20627 4.09369,-8.31121 1.62592,-14.4208 -0.81432,-2.01606 -1.34607,-3.88323 -1.18165,-4.14925 0.52733,-0.85324 3.29234,-0.51848 5.81859,0.70445 4.62452,2.2387 6.96925,7.4338 6.54673,14.5053 -0.61492,10.29166 -7.76758,17.08735 -21.47618,20.40438 -5.02231,1.21523 -24.22974,4.479927 -37.07163,6.301077 -3.85312,0.54643 -7.20991,1.16795 -7.45954,1.38116 -0.56366,0.48142 24.22419,1.7789 33.73077,1.76558 13.13214,-0.0184 25.84408,-1.84773 32.11472,-4.62153 3.19808,-1.41467 7.25648,-5.092347 8.25709,-7.482507 1.01107,-2.41516 0.99954,-5.693 -0.0321,-9.1209 l -0.81857,-2.71991 h 2.23329 c 5.79274,0 9.12544,8.00183 6.7143,16.12105 -1.80699,6.084797 -5.95499,10.424057 -13.58192,14.208177 -6.82074,3.38412 -17.24841,5.59425 -32.0257,6.78781 l -4.72837,0.38191 0.58299,2.70536 c 0.32065,1.48796 0.59361,6.90877 0.6066,12.04626 0.0276,10.92182 -1.07954,16.5752 -4.80137,24.51738 -6.23118,13.29698 -14.04354,20.90026 -39.47395,38.41748 -12.11776,8.34707 -10.87238,7.30594 -15.66196,13.09345 -2.18665,2.64224 -6.42369,7.10835 -9.41565,9.92469 l -5.43994,5.12061 -0.40872,4.96234 c -0.53179,6.45655 -2.11127,13.72359 -4.25598,19.58139 l -1.71874,4.69436 2.80422,3.04972 c 1.54233,1.67735 3.77968,4.83339 4.9719,7.01343 l 2.16767,3.9637 3.92174,0.61752 c 2.15696,0.33964 5.57149,1.44191 7.58785,2.44949 2.01635,1.00759 3.7394,1.83198 3.82898,1.83198 0.0896,0 0.34588,-1.22029 0.56954,-2.71176 0.61204,-4.08139 -0.56561,-10.64488 -3.59865,-20.05664 -3.46075,-10.73901 -3.74236,-15.75239 -1.19692,-21.30889 1.8484,-4.03492 4.51911,-7.08621 7.21478,-8.24289 4.19463,-1.79987 9.52115,-0.33916 13.07332,3.58515 6.51224,7.19447 10.97677,11.20954 14.18094,12.75327 8.80633,4.24279 17.95006,4.18199 26.84942,-0.17852 23.05064,-11.29435 28.92469,-36.36854 20.51853,-87.5862 -2.49138,-15.17969 -1.77948,-23.68744 2.38965,-28.55814 2.87823,-3.36256 6.27562,-4.50346 12.47504,-4.18935 11.29992,0.57255 19.4082,0.20439 25.10363,-1.13985 16.24399,-3.8339 25.7098,-10.07077 46.99632,-30.965107 14.85146,-14.57786 18.50685,-17.77021 24.93583,-21.77722 7.96109,-4.96193 14.17369,-6.72164 17.57437,-4.97792 4.60063,2.359 7.40514,7.86349 7.40514,14.53424 v 4.05201 l -3.57269,-2.30914 c -4.48552,-2.89913 -6.76894,-3.36495 -10.15531,-2.07169 -3.1878,1.21743 -4.94768,3.25898 -7.94043,9.21127 -4.02747,8.01023 -6.74732,16.904457 -8.13981,26.618137 -1.0486,7.31472 -0.39989,23.07683 1.1912,28.94369 1.91041,7.04426 4.18061,11.09875 7.20778,12.87279 6.55639,3.8423 10.76994,-0.41726 10.21028,-10.32179 -0.20676,-3.65928 -0.13508,-3.95332 0.96331,-3.9513 2.3942,0.005 5.01708,2.27064 6.60311,5.70525 1.32323,2.86552 1.54393,4.13165 1.54919,8.8877 0.01,9.07362 -2.75776,15.52438 -7.62752,17.777 -7.07653,3.27342 -10.83553,11.60648 -10.81052,23.96507 0.0286,14.12396 6.28108,23.64411 15.5286,23.64411 2.75881,0 4.62349,-1.4878 5.30473,-4.23258 0.76805,-3.09455 3.70665,-1.48663 5.26412,2.88037 1.12047,3.14172 1.0076,7.06938 -0.28498,9.91624 -1.79864,3.96145 -3.75044,4.51564 -19.09688,5.42241 -15.38572,0.90907 -21.9766,2.87008 -26.33682,7.8361 -2.23624,2.54693 -4.22655,7.80215 -4.22655,11.15978 0,2.19508 0.33538,2.9332 2.24482,4.94044 2.05881,2.16426 2.49528,2.3598 5.2673,2.3598 2.72039,0 3.27851,-0.23602 5.58452,-2.36163 l 2.56207,-2.36163 -0.32046,2.50758 c -0.50214,3.92913 -2.32355,8.24099 -4.36179,10.32576 -3.05872,3.12853 -5.67716,4.14983 -10.6394,4.14983 -5.22889,0 -9.59764,-1.45092 -13.62497,-4.52505 -3.3496,-2.55681 -15.202,-8.32222 -21.1566,-10.29128 -11.46594,-3.79155 -23.47742,-4.38166 -29.77762,-1.46296 -5.95645,2.75946 -9.7266,8.24239 -10.34317,15.04211 l -0.30512,3.36482 -4.29136,-2.15586 c -10.45688,-5.25323 -28.36591,-7.19676 -39.568,-4.294 -6.8335,1.77073 -11.34507,5.04566 -13.58891,9.86412 -1.64528,3.53309 -1.69589,4.75668 -0.28525,6.89611 3.30748,5.01627 8.71251,4.56483 15.34382,-1.28153 l 2.71186,-2.39086 3.33723,1.52784 c 2.89486,1.32531 3.89832,1.49184 7.56983,1.25621 5.08176,-0.32613 10.32727,-2.58306 14.37646,-6.18562 1.61381,-1.4358 2.89661,-2.17645 3.21614,-1.85692 0.29236,0.29236 2.23685,0.96891 4.32108,1.50346 7.12699,1.82786 14.6791,0.3574 19.38501,-3.77444 l 2.10865,-1.85143 1.23266,1.73111 c 0.67796,0.95211 2.67902,2.43875 4.44681,3.30365 4.68327,2.2913 7.72466,1.72824 15.55305,-2.87938 l 2.74074,-1.61314 0.62813,2.51769 c 1.65408,6.62996 5.58159,11.66956 10.96817,14.07383 4.278,1.90946 11.76026,2.93445 17.66258,2.41959 l 4.56475,-0.39819 0.36265,3.42783 c 0.98097,9.27225 3.28012,16.76507 7.09963,23.13738 3.16917,5.28731 5.09236,7.71582 10.51313,13.27543 l 4.83842,4.96235 -2.2895,3.4636 c -3.64802,5.51876 -4.76287,9.42856 -5.08851,17.84529 -0.30681,7.93023 0.40987,13.20143 3.01163,22.15052 l 1.43171,4.92455 -3.50533,3.74722 c -1.99475,2.13239 -3.3734,4.09101 -3.19919,4.545 0.16838,0.43878 0.48195,4.81109 0.69682,9.71624 1.60775,36.70195 -14.02013,66.41548 -40.52007,77.04149 -4.84134,1.94127 -11.60572,3.38082 -16.06473,3.41871 l -3.01362,0.0257 2.30146,0.81989 c 1.2658,0.45088 2.97343,1.30662 3.79474,1.90152 2.09466,1.51736 4.55262,6.61136 5.02869,10.42174 0.35876,2.87132 0.25536,3.37299 -0.96237,4.66921 -0.75038,0.79876 -3.00939,2.26213 -5.02002,3.25197 -3.05836,1.50563 -4.16024,1.75784 -6.7435,1.54364 -5.71621,-0.47405 -7.94131,-2.09615 -21.16741,-15.43126 -8.11221,-8.17905 -13.31122,-12.94967 -15.3674,-14.10117 l -3.1075,-1.7402 3.76671,-1.14976 c 5.34034,-1.63006 10.08807,-4.47973 18.79483,-11.281 8.29212,-6.47737 12.94476,-9.14983 16.86491,-9.68715 2.80921,-0.38504 6.16466,0.48341 8.67657,2.24566 1.45365,1.01982 1.60546,1.46397 1.60546,4.69699 0,5.50752 -2.34975,9.36203 -8.17851,13.41592 l -1.45427,1.01142 1.54784,-0.53721 c 2.76478,-0.95961 10.04905,-4.80127 13.33919,-7.03497 11.86301,-8.05391 19.29663,-19.47614 22.79445,-35.02515 0.61396,-2.72929 1.12198,-5.83296 1.12893,-6.89706 l 0.0126,-1.93472 -2.41558,1.35091 c -1.32857,0.74301 -4.15273,2.9535 -6.27591,4.91221 l -3.8603,3.56128 -6.12995,0.33344 c -7.95169,0.43253 -14.19652,2.58922 -18.43794,6.36767 -1.18463,1.05531 -1.48965,1.05178 -11.94097,-0.13838 -10.38948,-1.18311 -10.79011,-1.27805 -12.79564,-3.03227 -15.11139,-13.21778 -13.59535,-11.51118 -20.50542,-23.08286 l -6.37666,-10.67841 v -13.67896 -13.67896 l 4.08708,-10.37904 4.08708,-10.37904 5.39976,-6.20616 c 3.81133,-4.38054 5.89349,-6.31255 7.07819,-6.56781 2.67741,-0.57689 16.64338,-0.40988 20.79806,0.2487 6.52065,1.03363 6.44759,0.37856 0.93684,8.39967 -3.77082,5.48857 -5.70648,9.07373 -8.2478,15.27635 -3.6321,8.86487 -3.5278,7.96353 -2.24044,19.36134 l 0.34712,3.07323 6.03932,4.66218 c 3.32162,2.56421 6.37776,4.65082 6.79141,4.63694 0.41365,-0.0139 4.03599,-1.28699 8.04965,-2.82912 l 7.29757,-2.80387 6.33503,-7.17858 6.33503,-7.17858 -0.33242,-3.56578 c -0.18284,-1.96117 -0.50369,-7.17521 -0.713,-11.58676 l -0.38059,-8.02099 -7.05674,-5.66447 c -5.99193,-4.80974 -7.63307,-5.82458 -10.87627,-6.72557 -8.17124,-2.27003 -14.11299,-3.00371 -24.25272,-2.99468 l -9.92469,0.009 -5.25424,2.48741 c -16.85227,7.97802 -34.4911,13.0941 -59.42931,17.23724 -6.3565,1.05604 -11.66118,2.02399 -11.78818,2.15099 -0.70316,0.70316 -1.45757,8.81006 -1.45841,15.67218 -0.002,12.32524 1.75459,21.89966 7.49555,40.86637 1.60365,5.29803 3.1027,10.68363 3.33124,11.96801 0.63106,3.54654 2.33356,6.45827 4.5925,7.85436 4.15531,2.56812 14.27858,2.13174 18.11085,-0.78071 3.14276,-2.38843 5.44732,-3.27892 8.48574,-3.27892 3.52102,0 6.19909,1.03173 8.13933,3.13569 0.98805,1.07141 2.00713,1.53475 3.37563,1.53475 2.41185,0 5.82579,1.378 7.66241,3.09284 2.07536,1.93776 3.01747,4.14919 3.01747,7.08294 0,2.60096 -1.4805,7.33838 -2.29332,7.33838 -0.22833,0 -1.00599,-0.67954 -1.72814,-1.51008 -3.04663,-3.50393 -7.69683,-4.34142 -11.97113,-2.15596 -2.47299,1.26444 -7.84869,1.10209 -10.80516,-0.32632 l -2.46321,-1.19009 -2.73772,1.18123 c -3.38692,1.46133 -9.85909,1.99687 -14.12193,1.16852 -3.17332,-0.61662 -3.22896,-0.60316 -4.75069,1.14958 -2.47522,2.85099 -3.67594,7.54637 -3.66599,14.33574 0.008,5.45413 0.1478,6.19271 1.71293,9.049 2.2908,4.18057 2.35416,8.39967 0.18881,12.5733 -2.94785,5.68188 -2.62705,9.72783 0.95755,12.07653 1.89363,1.24076 1.50135,1.87168 -2.24957,3.61819 -3.65187,1.70039 -5.02525,1.74961 -6.93358,0.24853 z m -10.2679,-77.67373 c 2.12736,-0.59088 2.13555,-0.60531 1.57088,-2.76982 -3.84122,-14.72425 -12.57736,-32.31716 -27.48527,-55.35006 -4.22016,-6.52018 -7.24717,-8.92333 -11.90056,-9.44783 -2.31393,-0.26082 -2.57526,-0.14474 -3.64893,1.62078 -0.63608,1.04595 -1.45224,3.59992 -1.81369,5.67552 -0.90673,5.20686 -3.54208,12.17466 -6.1417,16.23852 -1.19795,1.87271 -4.86773,6.19516 -8.15504,9.60545 -3.28731,3.41028 -6.66026,7.36675 -7.49544,8.79216 -1.22638,2.09306 -3.33064,8.34749 -3.33064,9.89952 0,0.19184 1.00401,0.79177 2.23114,1.33318 2.1078,0.92995 5.0417,3.68146 11.51627,10.80031 l 2.81471,3.0948 1.44924,-1.85178 c 1.78496,-2.28075 4.48402,-3.46212 7.90987,-3.46212 2.12278,0 2.67769,-0.22418 2.98991,-1.2079 0.588,-1.85262 3.71158,-3.45965 6.70097,-3.44754 3.20243,0.013 6.82621,1.58952 10.42883,4.53715 3.90493,3.19496 5.79691,4.28952 9.41837,5.4488 3.60772,1.15487 9.71622,1.38657 12.94108,0.49086 z M 473.59327,110.04353 c 0.93927,-0.25171 1.31449,-0.79008 1.31682,-1.88939 0.005,-2.50463 1.17921,-6.0077 1.93154,-5.76398 0.38078,0.12336 1.04905,1.7076 1.48505,3.52053 l 0.79272,3.29625 2.10585,-0.87988 c 2.50493,-1.04662 3.08412,-1.80105 2.8818,-3.75361 -0.22832,-2.20346 -4.55808,-4.27081 -8.01322,-3.82611 -6.24828,0.8042 -11.13473,7.33986 -6.79789,9.0922 1.51224,0.61104 2.58792,0.6621 4.29733,0.20399 z"
   id="path838"
   inkscape:connector-curvature="0"
   transform="matrix(0.42856599,0,0,0.45268552,295.28254,94.136181)" /><path
   style="opacity:1;fill:#165016;fill-opacity:1;stroke:none;stroke-width:2.26771665;stroke-miterlimit:4;stroke-dasharray:none;stroke-dashoffset:0;stroke-opacity:1"
   d=""
   id="path855"
   inkscape:connector-curvature="0" /><g
   aria-label="HOTEL HENRY VIII"
   style="font-style:normal;font-variant:normal;font-weight:normal;font-stretch:normal;font-size:96px;line-height:1.25;font-family:Algerian;-inkscape-font-specification:Algerian;letter-spacing:0px;word-spacing:0px;fill:#005500;fill-opacity:1;stroke:none"
   id="text5810" /><rect
   style="opacity:1;fill:#005500;fill-opacity:1;stroke:none;stroke-width:2.26771712;stroke-miterlimit:4;stroke-dasharray:none;stroke-dashoffset:0;stroke-opacity:1"
   id="rect863"
   width="560.48517"
   height="19.535322"
   x="248.29874"
   y="432.17264" /><text
   xml:space="preserve"
   style="font-style:normal;font-variant:normal;font-weight:normal;font-stretch:normal;font-size:40px;line-height:1.25;font-family:'St Charles';-inkscape-font-specification:'St Charles';letter-spacing:0px;word-spacing:0px;fill:#005500;fill-opacity:1;stroke:none"
   x="248.09863"
   y="387.00906"
   id="text922"><tspan
     sodipodi:role="line"
     id="tspan920"
     x="248.09863"
     y="387.00906"
     style="font-size:96px;fill:#005500">Hotel Henry VIII</tspan></text>

<path
   style="opacity:1;fill:#005500;fill-opacity:1;stroke:#060000;stroke-width:32.50393677;stroke-miterlimit:4;stroke-dasharray:none;stroke-dashoffset:0;stroke-opacity:0"
   d="m 403.92599,456.24227 -7.60743,15.125 -16.77148,2.30859 12.0332,11.90821 -2.98633,16.66406 15.04297,-7.76563 14.92578,7.99024 -2.73632,-16.70703 12.21289,-11.72461 -16.73633,-2.56055 z m 62.49023,0.36523 -7.60547,15.125 -16.77148,2.3086 12.0332,11.9082 -2.98633,16.66406 15.04297,-7.76562 14.92578,7.99023 -2.73633,-16.70703 12.21094,-11.72656 -16.73437,-2.56055 z m 62.49219,0.36524 -7.60547,15.125 -16.77344,2.30664 12.03516,11.9082 -2.98828,16.66407 15.04492,-7.76368 14.92578,7.99024 -2.73633,-16.70703 12.21094,-11.72657 -16.73438,-2.56054 z m 62.49218,0.36328 -7.60742,15.125 -16.77148,2.30859 12.03515,11.90821 -2.98828,16.66406 15.04493,-7.76563 14.92382,7.99219 -2.73632,-16.70898 12.21289,-11.72461 -16.73633,-2.56055 z m 62.49219,0.36523 -7.60742,15.125 -16.77148,2.3086 12.0332,11.9082 -2.98633,16.66406 15.04297,-7.76562 14.92578,7.99023 -2.73633,-16.70703 12.21289,-11.72461 -16.73633,-2.56054 z"
   id="path930"
   inkscape:connector-curvature="0" /><rect
   style="opacity:1;fill:#005500;fill-opacity:1;stroke:#060000;stroke-width:32.50393677;stroke-miterlimit:4;stroke-dasharray:none;stroke-dashoffset:0;stroke-opacity:0"
   id="rect846"
   width="91.816017"
   height="7.8141294"
   x="283.75653"
   y="479.57156" /><rect
   y="479.57156"
   x="683.75653"
   height="7.8141294"
   width="91.816017"
   id="rect848"
   style="opacity:1;fill:#005500;fill-opacity:1;stroke:#060000;stroke-width:32.50393677;stroke-miterlimit:4;stroke-dasharray:none;stroke-dashoffset:0;stroke-opacity:0" /></svg>